<?xml version="1.0" encoding="utf-8"?>
<!-- Generator: Adobe Adobe Illustrator 24.2.0, SVG Export Plug-In . SVG Version: 6.00 Build 0)  -->
<svg version="1.1" id="Layer_4" xmlns="http://www.w3.org/2000/svg" xmlns:xlink="http://www.w3.org/1999/xlink" x="0px" y="0px"
	 viewBox="0 0 1280 679.46" style="enable-background:new 0 0 1280 679.46;" xml:space="preserve" preserveAspectRatio="none">
<style type="text/css">
	.st0{fill: rgb(224, 246, 255);}
</style>
<g>
	<g>
		<g>
			<polygon class="st0" points="1117.63,574.08 1044.63,584.57 1081.8,599.56 			"/>
			<path class="st0" d="M1280,679.46l-57.75-46.15l-1.6,22.22l0,0l-5.66,12.15l-8-17.65l0,0l-41.65-41.88l12,29.93l0,0l13.5,20.61
				l-102.05-4.77l47.02-32.58v0l-28.3-29.36l-0.83,17.62l17.48,7.05l-17.48-7.05l7.78,18.07l-63.86-7.16l31.2-20.93l-37.17-14.98
				l-40.12,8.5l-70.29,14.89l34.82-53.85v0l-13.55-77.72l-15.78,65.9l9.69,3.91l-9.69-3.91l-29.95,68.66l-2.46-81.73l0,0
				l-57.04-55.97l3.65,34.44l16.69,6.73l-16.7-6.73l28.99,35.81l-93.7-15.52l30.91-33.92l-15.48-6.24l15.48,6.24l-41.81-62.64
				l11.04,50.24l0,0l-9.88,21.1l-42.79,4.11l41.62-29.66l-35.83-14.45l-46.08,34.27l33.43-39.37v0l15.85-44.35l-47.96,31.41
				l18.45,7.44l-18.45-7.44l-18.6,13.83l-110.01-2.98l87.17-27.56l0,0L640,385.38l-62.58,10.85l0,0l25,22.85l-50,18.29v-51.22v0
				l-15.88-33.68l1.82,28.01l6.14,2.47l-6.14-2.48l6.72,103.39l-56.91-118.75l7.33-1.92l0,0l19.43-3.54l-36.85-3.48l-0.63-0.25
				l-62.48,51.22l-94.05-42.37l151.39-10.92l-0.63-0.25l113.24-24.18l-94.22,1.91l-77.44-35.53l32.71,36.07l7.95,0.21L420,332.77
				l0,0l0,0l-151.26,6.43l50.93-46.87l-0.91-0.37l69.34-40.16c0,0-118.82,21.81-115.33,21.62l0,0l-60.6,10.17l32.62-21.44
				l-3.54-1.43l3.54,1.43l-17.92-46.53l0.56,39.54l-0.73-0.3l-94.62,68.3l52.13-85.43l-8.28-3.34l8.28,3.34l22.88-22.11
				l-52.03,10.36l0,0l-13.63,18.83l-1.82-25.06l0,0l-2.02-37.29l-30.75,24.08l0.84,0.34l-0.84-0.34l25.24,65.66l-68.68-41.97
				L42.1,217.2l20.63-28.46v0l-12.65-27.37l-10.11,18.19l0,0l-21.14,44.07l-8.82-46.37l10.46-5.56L0,163.46v514.71L1280,679.46
				l-24.7-9.96L1280,679.46z M61.06,262.92l-8.2,48.53l-27.9-65.01L61.06,262.92z M24.85,368.24l23.81,16.16l-25.51,6.8
				L24.85,368.24z M44.41,472.85l11.06-48.48l39.97-21.26L44.41,472.85z M64.83,350.79l5.53-68.9l51.33,82.53L64.83,350.79z
				 M325.54,390.84l29.82,11.77l-37.67,14.91L325.54,390.84z M180.94,331.19l103.13-26.98L159.04,421.2L180.94,331.19z
				 M169.31,528.17l-2.23-43.52l24.32,24.23L169.31,528.17z M291.74,448.32l-52.88-23.82l59.77-62.08L291.74,448.32z M302.94,530.68
				l34.87-39.97l34.02,23.81L302.94,530.68z M475.06,389.23l-0.8,41.97l-41.87,3.02L475.06,389.23z M418.93,474.03l35.32-12.56
				l14.91,67.49L418.93,474.03z M583.73,620.24l-26.55-23.76l39.83-18.87L583.73,620.24z M509.51,536.35l-35.86-86.4l128.62,98.49
				L509.51,536.35z M569.28,479.34l101.96,2.76l-34.52,28.03L569.28,479.34z M687.74,522.61l148.61,26.86l-193.37,19.69
				L687.74,522.61z M835.75,617.5l-29.84-20.89l56.1-2.39L835.75,617.5z M773.68,587.66l89.52-28.65l18.5,20.89L773.68,587.66z
				 M953.92,619.89l50.73-11.34l-20.29,26.26L953.92,619.89z M992.71,653.91l28.05-26.26l56.7,4.18L992.71,653.91z"/>
			<polygon class="st0" points="45.71,159.83 0,163.46 20.47,171.71 			"/>
			<polygon class="st0" points="743.36,462.94 778.3,477.21 764.62,452.42 			"/>
			<polygon class="st0" points="995.34,546.17 1047.77,567.52 982.4,502.15 			"/>
			<polygon class="st0" points="1186.28,603.77 1202.46,581.12 1161.04,582.41 			"/>
			<polygon class="st0" points="855.29,416.32 795.1,405.38 818.81,445.51 			"/>
			<polygon class="st0" points="105.06,108.31 84.05,156.01 106.86,192.51 			"/>
			<polygon class="st0" points="51.34,125.19 6.85,141.69 36.23,151.87 			"/>
			<polygon class="st0" points="496.15,261.76 416.41,277.15 533.67,304.79 			"/>
			<polygon class="st0" points="317.96,183.36 241.94,214.61 256.87,254.25 			"/>
			<polygon class="st0" points="469.08,225.33 440.63,254.25 491.46,242.12 			"/>
			<polygon class="st0" points="670.71,417.49 744,404.87 657.11,384 			"/>
			<polygon class="st0" points="591.1,381.09 594.98,355.85 571.2,365.56 			"/>
			<polygon class="st0" points="893.93,469.08 887.41,490.8 899.36,504.92 			"/>
			<polygon class="st0" points="993.37,474.89 993.86,501 1009.14,512.34 			"/>
			<polygon class="st0" points="1268.36,641.77 1238.96,599.51 1252.43,627.68 			"/>
			<polygon class="st0" points="359.68,326.52 388.49,321.34 385.03,294.25 			"/>
			<polygon class="st0" points="319.34,253.92 352.19,241.82 297.45,236.05 			"/>
			<polygon class="st0" points="168.95,211.85 198.34,207.24 158.58,162.3 			"/>
			<polygon class="st0" points="237.18,139.51 212.43,147.44 228.34,161.3 			"/>
			<polygon class="st0" points="589.22,207.67 560.93,187.96 571.22,225.67 			"/>
			<polygon class="st0" points="766.38,331.09 759.66,369.16 821.24,344.52 			"/>
			<polygon class="st0" points="103.71,0 102.13,37.01 131.7,0.29 			"/>
			<polygon class="st0" points="333.83,98.75 273.27,174.16 387.53,138.74 			"/>
			<polygon class="st0" points="137.94,75.9 135.65,147.88 174.5,49.62 			"/>
			<polygon class="st0" points="945.24,332.32 910.96,375.74 922.39,460.29 			"/>
			<polygon class="st0" points="416.21,204.35 388.11,182.45 332.8,206.63 			"/>
			<polygon class="st0" points="885.16,401.4 870.77,370.74 773.63,388.4 			"/>
			<polygon class="st0" points="241.15,0 206.76,24.57 173.07,102.48 			"/>
			<polygon class="st0" points="72.75,70 29.94,37.01 32.74,86.85 			"/>
			<polygon class="st0" points="988.5,281.73 969.04,408.18 1022.1,387.85 			"/>
			<polygon class="st0" points="1175.93,559.07 1037.42,468.78 1073.36,561.7 			"/>
			<polygon class="st0" points="1136.69,429.31 1135.81,467.88 1171.75,500.32 			"/>
			<polygon class="st0" points="711.39,326.05 629.3,358.33 709.55,363.87 			"/>
			<polygon class="st0" points="616.38,325.12 526.91,214.43 559.19,303.91 			"/>
			<polygon class="st0" points="696.73,173.18 640,240.09 706.24,211.86 			"/>
			<polygon class="st0" points="465.01,91.76 449.65,100.72 456.69,123.12 			"/>
			<polygon class="st0" points="1097.83,265.96 1061.04,269.63 1062.26,303.97 			"/>
		</g>
	</g>
</g>
</svg>
