<?xml version="1.0" encoding="utf-8"?>
<!-- Generator: Adobe Adobe Illustrator 24.2.0, SVG Export Plug-In . SVG Version: 6.00 Build 0)  -->
<svg version="1.1" xmlns="http://www.w3.org/2000/svg" xmlns:xlink="http://www.w3.org/1999/xlink" x="0px" y="0px"
	 viewBox="0 0 1280 679.46" style="enable-background:new 0 0 1280 679.46;" xml:space="preserve" preserveAspectRatio="none">
<style type="text/css">
	.st0{display:none;}
	.st1{display:inline;}
	.st2{fill:rgb(224, 246, 255);}
</style>
<g id="Layer_4" class="st0">
	<g class="st1">
		<g>
			<g>
				<path class="st2" d="M0,0l59.36,23.93l5.66-12.15l8,17.65v0l41.65,41.88l-12-29.93l0,0l-13.5-20.61l102.05,4.77l-47.02,32.58
					l0,0l28.3,29.36l0.83-17.62l-7.38-2.97l7.38,2.97l-7.78-18.07l63.86,7.16L198.2,79.9l37.17,14.98l40.12-8.5l70.29-14.89
					l-34.82,53.85l29.33,11.83l29.95-68.66l2.46,81.73l0,0l57.04,55.97l-3.65-34.44l-28.99-35.81l93.7,15.52l-30.91,33.92
					l23.37,9.42l-23.37-9.42l41.81,62.64l-11.04-50.24v0l9.88-21.1l42.79-4.11l-41.62,29.66l35.83,14.45l46.08-34.27l-33.43,39.37
					l13.76,5.55l-13.76-5.55l-15.85,44.35l47.96-31.41l0,0l18.6-13.83l110.01,2.98l-87.17,27.56l0,0L640,294.07l62.58-10.85
					l-31.9-12.86l31.9,12.86l-25-22.85l50-18.29v51.22v0l15.88,33.68l-1.82-28.01l-10.18-4.1l10.18,4.1l-6.72-103.39l56.91,118.75
					l-7.33,1.92l-19.43,3.54l36.85,3.48l0.63,0.25l62.48-51.22l94.05,42.37L810.44,325.4l0,0l0,0l-2.75,0.2l0.63,0.25l-113.24,24.18
					l94.22-1.91l77.44,35.53l-32.71-36.07l-7.95-0.21l33.93-0.69l-0.01,0l0.01,0l151.26-6.43l-50.93,46.87l46.9,18.9l60.6-10.17
					l-32.62,21.44l4.45,1.79l-4.45-1.79l17.92,46.53l-0.56-39.54l0.73,0.3l94.62-68.3l-52.13,85.43l16.56,6.68l-16.56-6.68
					l-22.88,22.11l52.03-10.36h0l13.63-18.83l1.82,25.06l0,0l2.02,37.29l30.75-24.08l-28.83-11.62l28.83,11.62l-25.24-65.66
					l68.68,41.97l21.32,13.03l-20.63,28.46v0l12.65,27.37l10.11-18.19l-12.71-5.12l12.71,5.12l21.14-44.07l8.82,46.37l-10.46,5.56
					L1280,516V1.29L0,0z M202.55,47.63l84.75-22.08l-28.05,26.26L202.55,47.63z M275.36,70.9l20.29-26.26l30.44,14.92L275.36,70.9z
					 M696.27,59.22l26.55,23.76l-39.83,18.87L696.27,59.22z M444.25,61.95l29.84,20.89l-56.1,2.39L444.25,61.95z M398.3,99.55
					l108.02-7.76l-89.52,28.65L398.3,99.55z M592.26,156.85l-148.61-26.86l193.37-19.69L592.26,156.85z M608.76,197.36l34.52-28.03
					l67.44,30.79L608.76,197.36z M677.73,131.01l92.76,12.09l35.86,86.4L677.73,131.01z M804.94,290.23l0.8-41.97l41.87-3.02
					L804.94,290.23z M825.76,217.98l-14.91-67.49l50.23,54.94L825.76,217.98z M1110.69,151.29l2.23,43.52l-24.32-24.23
					L1110.69,151.29z M954.46,288.61l-29.82-11.77l37.67-14.91L954.46,288.61z M942.19,188.75l-34.02-23.81l68.89-16.16
					L942.19,188.75z M981.37,317.04l6.89-85.9l52.88,23.82L981.37,317.04z M1099.06,348.26l-103.13,26.98l125.03-116.98
					L1099.06,348.26z M1209.64,397.57l-51.33-82.53l56.86,13.63L1209.64,397.57z M1184.57,276.35l51.03-69.74l-11.06,48.48
					L1184.57,276.35z M1218.94,416.54l8.2-48.53l27.9,65.01L1218.94,416.54z M1255.15,311.22l-23.81-16.16l25.51-6.8L1255.15,311.22
					z"/>
				<polygon class="st2" points="162.37,105.38 235.37,94.88 198.2,79.9 				"/>
				<polygon class="st2" points="57.75,46.15 59.36,23.93 0,0 				"/>
				<path class="st2" d="M1007.22,406.04l-45.99-18.54l-69.34,40.16C891.89,427.66,1010.71,405.85,1007.22,406.04z"/>
				<polygon class="st2" points="1234.29,519.63 1280,516 1259.53,507.75 				"/>
				<polygon class="st2" points="310.96,125.36 324.51,203.08 340.29,137.18 				"/>
				<polygon class="st2" points="536.64,216.52 501.7,202.25 515.38,227.04 				"/>
				<polygon class="st2" points="284.66,133.29 232.23,111.93 297.6,177.3 				"/>
				<polygon class="st2" points="93.72,75.69 77.54,98.34 118.96,97.05 				"/>
				<polygon class="st2" points="424.71,263.13 484.9,274.08 461.19,233.95 				"/>
				<polygon class="st2" points="1174.94,571.15 1195.95,523.45 1173.14,486.95 				"/>
				<polygon class="st2" points="1228.66,554.26 1273.15,537.77 1243.77,527.59 				"/>
				<polygon class="st2" points="783.85,417.7 863.59,402.31 746.33,374.67 				"/>
				<polygon class="st2" points="962.04,496.1 1038.06,464.85 1023.13,425.21 				"/>
				<polygon class="st2" points="810.92,454.12 839.37,425.21 788.54,437.33 				"/>
				<polygon class="st2" points="609.29,261.96 536,274.58 622.88,295.46 				"/>
				<polygon class="st2" points="688.9,298.37 685.02,323.61 708.8,313.9 				"/>
				<polygon class="st2" points="386.07,210.38 392.59,188.65 380.64,174.53 				"/>
				<polygon class="st2" points="286.63,204.57 286.14,178.45 270.86,167.12 				"/>
				<polygon class="st2" points="11.64,37.69 41.04,79.95 27.57,51.77 				"/>
				<polygon class="st2" points="894.97,385.2 920.32,352.94 891.51,358.12 				"/>
				<polygon class="st2" points="982.55,443.4 960.66,425.54 927.81,437.64 				"/>
				<polygon class="st2" points="1111.05,467.6 1081.66,472.21 1121.42,517.16 				"/>
				<polygon class="st2" points="1042.82,539.94 1067.57,532.02 1051.66,518.15 				"/>
				<polygon class="st2" points="690.78,471.79 719.07,491.5 708.78,453.79 				"/>
				<polygon class="st2" points="513.62,348.37 520.34,310.3 458.76,334.93 				"/>
				<polygon class="st2" points="1176.29,679.46 1177.87,642.45 1148.3,679.17 				"/>
				<polygon class="st2" points="946.17,580.71 1006.73,505.29 892.47,540.71 				"/>
				<polygon class="st2" points="1142.06,603.56 1144.35,531.57 1105.5,629.84 				"/>
				<polygon class="st2" points="334.76,347.14 369.04,303.72 357.61,219.16 				"/>
				<polygon class="st2" points="863.79,475.11 891.89,497.01 947.2,472.82 				"/>
				<polygon class="st2" points="394.84,278.05 409.23,308.72 506.37,291.06 				"/>
				<polygon class="st2" points="1038.85,679.46 1073.24,654.89 1106.93,576.98 				"/>
				<polygon class="st2" points="1207.25,609.46 1250.06,642.45 1247.26,592.61 				"/>
				<polygon class="st2" points="291.5,397.73 310.96,271.27 257.9,291.61 				"/>
				<polygon class="st2" points="104.07,120.39 242.58,210.68 206.64,117.76 				"/>
				<polygon class="st2" points="143.31,250.15 144.19,211.58 108.25,179.14 				"/>
				<polygon class="st2" points="568.61,353.41 650.7,321.13 570.45,315.59 				"/>
				<polygon class="st2" points="663.62,354.33 753.09,465.02 720.81,375.55 				"/>
				<polygon class="st2" points="583.27,506.28 640,439.37 573.76,467.6 				"/>
				<polygon class="st2" points="814.99,587.7 830.35,578.74 823.31,556.34 				"/>
				<polygon class="st2" points="182.17,413.5 218.96,409.82 217.74,375.49 				"/>
			</g>
		</g>
	</g>
</g>
<g id="Layer_3">
	<g>
		<g>
			<g>
				<path class="st2" d="M694.7,0l23.17,10l17.36-4.46l1.69,12.68l53.58,23.12l-10.84-27.69l31.31,36.53l41.61,17.96l52.38-19.71
					l-1.01,41.88v0l-2.61,38.02l25.79-28.01l-12.44-5.37l12.44,5.37l6.02-6.53l4.09,10.89v0l47.19,41.59l-15.4-27.86l-7.66-3.3
					l7.66,3.3l-35.27-63.83l66.18-8.58l-0.62,85.48v0l-0.25,34.94l20.16-26.35l-12.15-5.24l12.15,5.24l-1.54-11.16l72.26,27.87
					l-29.18,1.22l60.02,25.9l-60.7-25.88l6.58,22.45l54.12,3.42v0l-9.59-9.17l40.62-16.53l-16.25,32.08l12.87,5.55l-12.87-5.55
					l-11.17,19.96l40.7-7.22l0,0l74.96-6.54l-0.99,38.47l40.92,17.66V0H694.7z M849.8,42.91l-22.67-26.96l133.58,7.97L849.8,42.91z
					 M1013.24,103.87l-2.26-34.21l51.43,59.25L1013.24,103.87z M1244.39,58.05l3.78,59.51l-20.78,2.83L1244.39,58.05z
					 M1134.34,139.76l-42.98-20.31l76.99-29.76L1134.34,139.76z M1210.12,171.66l-17.81-44.52l65.67,48.97L1210.12,171.66z"/>
				<polygon class="st2" points="1250.8,312.04 1280,252.59 1239.08,234.93 				"/>
				<polygon class="st2" points="717.86,10 694.7,0 674.02,14.05 				"/>
				<polygon class="st2" points="767.02,50.18 790.49,41.34 736.91,18.22 				"/>
				<polygon class="st2" points="810.96,50.18 831.75,71.26 852.57,68.13 				"/>
				<polygon class="st2" points="1230.21,299.85 1230.21,243.8 1139.82,228.73 				"/>
				<polygon class="st2" points="1014.47,178.72 996.99,217.89 1071.72,197.4 				"/>
				<polygon class="st2" points="810.77,133.52 830.66,169.07 818.01,87.11 				"/>
				<polygon class="st2" points="858.99,185.95 902.98,156.42 847.54,91.93 				"/>
				<polygon class="st2" points="737.25,34.08 680.6,33.48 751.71,73.86 				"/>
				<polygon class="st2" points="669.76,98.56 760.75,95.55 708.93,83.5 				"/>
				<polygon class="st2" points="973.32,200.24 973.49,243.8 996.99,178.72 				"/>
				<polygon class="st2" points="1061.47,252.84 1142.83,265.5 1091,241.39 				"/>
				<polygon class="st2" points="1092.21,299.85 1139.82,278.75 1090.4,271.52 				"/>
				<polygon class="st2" points="850.1,237.22 901.33,243.8 877,230.64 				"/>
				<polygon class="st2" points="614.14,39.13 637,33.48 625.79,14.83 				"/>
				<polygon class="st2" points="1189.76,358.61 1212.83,327.2 1188.43,332.76 				"/>
			</g>
		</g>
	</g>
</g>
</svg>
