<?xml version="1.0" encoding="utf-8"?>
<!-- Generator: Adobe Adobe Illustrator 24.2.0, SVG Export Plug-In . SVG Version: 6.00 Build 0)  -->
<svg version="1.1" xmlns="http://www.w3.org/2000/svg" xmlns:xlink="http://www.w3.org/1999/xlink" x="0px" y="0px"
	 viewBox="0 0 672.86 373.61" style="enable-background:new 0 0 672.86 373.61;" xml:space="preserve" preserveAspectRatio="none">
<style type="text/css">
	.st0{display:none;}
	.st1{display:inline;}
	.st2{fill:#D0EDF9;}
</style>
<g id="Layer_4" class="st0">
	<g class="st1">
		<g>
			<g>
				<path class="st2" d="M-607.14,0l59.36,23.93l5.66-12.15l8,17.65v0l41.65,41.88l-12-29.93l0,0l-13.5-20.61l102.05,4.77
					l-47.02,32.58l0,0l28.3,29.36l0.83-17.62l-7.38-2.97l7.38,2.97l-7.78-18.07l63.86,7.16l-31.2,20.93l37.17,14.98l40.12-8.5
					l70.29-14.89l-34.82,53.85l29.33,11.83l29.95-68.66l2.46,81.73l0,0l57.04,55.97l-3.65-34.44l-28.99-35.81l93.7,15.52
					l-30.91,33.92l23.37,9.42l-23.37-9.42l41.81,62.64l-11.04-50.24v0l9.88-21.1l42.79-4.11l-41.62,29.66l35.83,14.45l46.08-34.27
					l-33.43,39.37l13.76,5.55l-13.76-5.55l-15.85,44.35l47.96-31.41l0,0l18.6-13.83l110.01,2.98L16.6,251.45l0,0l16.26,42.63
					l62.58-10.85l-31.9-12.86l31.9,12.86l-25-22.85l50-18.29v51.22v0l15.88,33.68l-1.82-28.01l-10.18-4.1l10.18,4.1l-6.72-103.39
					l56.91,118.75l-7.33,1.92l-19.43,3.54l36.85,3.48l0.63,0.25l62.48-51.22l94.05,42.37L203.29,325.4l0,0l0,0l-2.75,0.2l0.63,0.25
					L87.93,350.04l94.22-1.91l77.44,35.53l-32.71-36.07l-7.95-0.21l33.93-0.69l-0.01,0l0.01,0l151.26-6.43l-50.93,46.87l46.9,18.9
					l60.6-10.17l-32.62,21.44l4.45,1.79l-4.45-1.79l17.92,46.53l-0.56-39.54l0.73,0.3l94.62-68.3l-52.13,85.43l16.56,6.68
					l-16.56-6.68l-22.88,22.11l52.03-10.36h0l13.63-18.83l1.82,25.06l0,0l2.02,37.29l30.75-24.08l-28.83-11.62L566,472.92
					l-25.24-65.66l68.68,41.97l21.32,13.03l-20.63,28.46v0l12.65,27.37l10.11-18.19l-12.71-5.12l12.71,5.12l21.14-44.07l8.82,46.37
					l-10.46,5.56l20.47,8.25V1.29L-607.14,0z M-404.6,47.63l84.75-22.08l-28.05,26.26L-404.6,47.63z M-331.79,70.9l20.29-26.26
					l30.44,14.92L-331.79,70.9z M89.12,59.22l26.55,23.76l-39.83,18.87L89.12,59.22z M-162.89,61.95l29.84,20.89l-56.1,2.39
					L-162.89,61.95z M-208.85,99.55l108.02-7.76l-89.52,28.65L-208.85,99.55z M-14.88,156.85l-148.61-26.86l193.37-19.69
					L-14.88,156.85z M1.62,197.36l34.52-28.03l67.44,30.79L1.62,197.36z M70.58,131.01l92.76,12.09l35.86,86.4L70.58,131.01z
					 M197.8,290.23l0.8-41.97l41.87-3.02L197.8,290.23z M218.61,217.98l-14.91-67.49l50.23,54.94L218.61,217.98z M503.54,151.29
					l2.23,43.52l-24.32-24.23L503.54,151.29z M347.32,288.61l-29.82-11.77l37.67-14.91L347.32,288.61z M335.05,188.75l-34.02-23.81
					l68.89-16.16L335.05,188.75z M374.23,317.04l6.89-85.9L434,254.96L374.23,317.04z M491.91,348.26l-103.13,26.98l125.03-116.98
					L491.91,348.26z M602.49,397.57l-51.33-82.53l56.86,13.63L602.49,397.57z M577.42,276.35l51.03-69.74l-11.06,48.48
					L577.42,276.35z M611.79,416.54L620,368l27.9,65.01L611.79,416.54z M648.01,311.22l-23.81-16.16l25.51-6.8L648.01,311.22z"/>
				<polygon class="st2" points="2.15,261.96 -71.15,274.58 15.74,295.46 				"/>
				<polygon class="st2" points="81.76,298.37 77.87,323.61 101.66,313.9 				"/>
				<polygon class="st2" points="287.82,385.2 313.18,352.94 284.36,358.12 				"/>
				<polygon class="st2" points="-38.54,353.41 43.56,321.13 -36.69,315.59 				"/>
				<polygon class="st2" points="56.47,354.33 145.95,465.02 113.66,375.55 				"/>
			</g>
		</g>
	</g>
</g>
<g id="Layer_3">
	<g>
		<g>
			<g>
				<path class="st2" d="M87.55,0l23.17,10l17.36-4.46l1.69,12.68l53.58,23.12l-10.84-27.69l31.31,36.53l41.61,17.96l52.38-19.71
					L296.8,90.3v0l-2.61,38.02l25.79-28.01l-12.44-5.37l12.44,5.37l6.02-6.53l4.09,10.89v0l47.19,41.59l-15.4-27.86l-7.66-3.3
					l7.66,3.3l-35.27-63.83l66.18-8.58l-0.62,85.48v0l-0.25,34.94l20.16-26.35l-12.15-5.24l12.15,5.24l-1.54-11.16l72.26,27.87
					l-29.18,1.22l60.02,25.9l-60.7-25.88l6.58,22.45l54.12,3.42v0l-9.59-9.17l40.62-16.53l-16.25,32.08l12.87,5.55l-12.87-5.55
					l-11.17,19.96l40.7-7.22l0,0l74.96-6.54l-0.99,38.47l40.92,17.66V0H87.55z M242.66,42.91l-22.67-26.96l133.58,7.97L242.66,42.91
					z M637.25,58.05l3.78,59.51l-20.78,2.83L637.25,58.05z M406.09,103.87l-2.26-34.21l51.43,59.25L406.09,103.87z M466.32,83.35
					l14.09-51.47L504.31,76L466.32,83.35z M527.19,139.76l-42.98-20.31l76.99-29.76L527.19,139.76z M602.98,171.66l-17.81-44.52
					l65.67,48.97L602.98,171.66z"/>
				<polygon class="st2" points="643.65,312.04 672.86,252.59 631.94,234.93 				"/>
				<polygon class="st2" points="110.72,10 87.55,0 66.87,14.05 				"/>
				<polygon class="st2" points="159.87,50.18 183.35,41.34 129.77,18.22 				"/>
				<polygon class="st2" points="203.82,50.18 224.6,71.26 245.43,68.13 				"/>
				<polygon class="st2" points="623.07,243.8 532.67,228.73 623.07,299.85 				"/>
				<polygon class="st2" points="407.32,178.72 389.85,217.89 464.57,197.4 				"/>
				<polygon class="st2" points="203.63,133.52 223.52,169.07 210.86,87.11 				"/>
				<polygon class="st2" points="295.83,156.42 240.39,91.93 251.84,185.95 				"/>
				<polygon class="st2" points="130.11,34.08 73.46,33.48 144.57,73.86 				"/>
				<polygon class="st2" points="62.61,98.56 153.61,95.55 101.78,83.5 				"/>
				<polygon class="st2" points="366.17,200.24 366.34,243.8 389.85,178.72 				"/>
				<polygon class="st2" points="454.33,252.84 535.68,265.5 483.86,241.39 				"/>
				<polygon class="st2" points="485.06,299.85 532.67,278.75 483.25,271.52 				"/>
				<polygon class="st2" points="242.96,243.08 314,255.51 280.25,230.64 				"/>
				<polygon class="st2" points="0,52.13 32.86,42.36 18.65,14.83 				"/>
				<polygon class="st2" points="578.62,373.61 625.68,337.2 581.28,332.76 				"/>
			</g>
		</g>
	</g>
</g>
</svg>
